<?xml version="1.0" encoding="UTF-8"?>
<svg id="Camada_2" data-name="Camada 2" xmlns="http://www.w3.org/2000/svg" viewBox="0 0 193.9 36.25">
  <defs>
    <style>
      .cls-1 {
        fill: #fff;
      }

      .cls-1, .cls-2 {
        stroke-width: 0px;
      }

      .cls-2 {
        fill: #6b8fc9;
      }
    </style>
  </defs>
  <g id="Camada_1-2" data-name="Camada 1">
    <path class="cls-2" d="m46.86,19.75c-1.1-4.96,3.23-9.29,8.19-8.19,2.5.55,4.52,2.57,5.07,5.07,1.1,4.96-3.23,9.29-8.19,8.19-2.5-.55-4.52-2.57-5.07-5.07Z"/>
    <path class="cls-1" d="m71.34,16.4c-.02-.2-.05-.39-.08-.58-.05-.38-.1-.76-.17-1.13-.04-.23-.1-.45-.16-.68-.08-.33-.16-.65-.25-.97-.07-.24-.15-.48-.23-.72-.1-.29-.2-.58-.32-.86-.1-.25-.2-.49-.31-.74-.12-.26-.24-.51-.37-.76-.13-.25-.26-.5-.4-.75-.13-.22-.26-.44-.4-.65-.16-.26-.32-.52-.5-.77-.12-.17-.25-.34-.38-.51-.21-.28-.41-.55-.64-.82-.06-.07-.12-.13-.18-.2-1.29-1.49-2.82-2.76-4.52-3.76-.03-.02-.07-.04-.1-.06-.41-.24-.83-.46-1.26-.66-.05-.02-.11-.05-.16-.08-.43-.2-.86-.38-1.31-.55-.05-.02-.11-.04-.16-.06-.45-.16-.91-.31-1.38-.44-.04-.01-.08-.02-.12-.03-1.48-.39-3.01-.62-4.61-.62-.01,0-.02,0-.03,0h0c-1.08,0-2.09.08-3.05.24h0c-.16.03-.31.05-.47.08h0c-.87.16-1.71.38-2.49.65,0,0-.02,0-.02,0-.04.02-.09.03-.14.04,0,0,0,0,0,0-.89.32-1.73.71-2.51,1.16,0,0-.02.01-.03.01,0,0,0,0,0,0-.38.21-.74.45-1.1.69,0,0,0,0,0,0-.01,0-.03.01-.04.02-.57.39-1.11.81-1.63,1.27-1.46,1.2-2.74,2.62-3.77,4.23-1.65,2.3-3.08,4.89-4.48,7.55-.01.02-.02.04-.03.05-.47.9-.94,1.8-1.41,2.7-.05.09-.09.18-.14.27-.15.29-.31.59-.46.88-.34.64-.69,1.28-1.04,1.92-.06.1-.11.2-.16.3-.39.71-.8,1.41-1.21,2.09,0,0,0,0,0,0-.02.04-.05.08-.07.12-.44.72-.89,1.44-1.37,2.13-.03.04-.07.08-.1.13-.84.96-1.81,1.79-2.88,2.45-1.99,1.16-4.5,1.93-6.82,1.93-5.75,0-10.59-3.77-12.21-8.97-.43-1.38-.63-2.86-.56-4.4.31-6.95,6.34-12.28,13.3-12.28l9.3-.02c1,0,1.81-.82,1.81-1.81v-1.29c0-1.03-.84-1.87-1.87-1.87h-9.75c-2.47,0-4.82.5-6.96,1.41C4.5,4.41,0,10.76,0,18.15h0c0,9.88,8.01,17.88,17.88,17.88,2.72,0,5.36-.61,7.75-1.74,2.27-1.03,4.24-2.48,5.63-4.18.11-.13.24-.24.35-.37l-.02-.02s0,0,0,0c.4-.55.79-1.12,1.17-1.7,0,0,0,0,0-.01.18-.29.36-.59.54-.89,0,0,0,0,0-.01.01-.02.03-.05.04-.06.41-.68.8-1.36,1.18-2.07,0-.02.02-.03.03-.05.09-.17.19-.34.28-.51,0,0,0,0,0-.01.26-.5.52-1,.78-1.51.03-.05.06-.11.08-.16.01-.02.02-.04.03-.07.61-1.2,1.21-2.42,1.8-3.63.21-.42.43-.85.64-1.27.04-.07.07-.14.11-.22,1.41-2.73,2.89-5.31,4.71-7.42,0,0,0,0,0,0,0,0,0,0,0,0,.39-.44.79-.87,1.21-1.26,0,0,0,0,0,0,.42-.4.86-.77,1.32-1.12.18-.14.35-.26.53-.39.24-.17.48-.32.73-.47.35-.21.71-.4,1.09-.57.23-.11.46-.2.7-.29.39-.15.78-.29,1.19-.41.2-.06.4-.11.61-.16.56-.13,1.14-.24,1.75-.3,0,0,.01,0,.02,0,.38-.03.76-.06,1.15-.06h0s.02,0,.03,0c1.08,0,2.12.15,3.12.4,1.74.44,3.35,1.23,4.74,2.29.03.02.06.04.08.06.24.19.47.38.7.59.06.05.12.11.18.16.21.19.41.39.6.59.07.07.14.15.2.23.18.2.36.4.53.62.07.08.12.17.19.25.29.38.56.79.81,1.2.07.12.15.24.22.37.09.16.17.33.25.5.09.19.19.38.27.57.07.16.13.33.2.49.08.21.16.42.23.63.05.16.1.33.15.49.07.23.13.46.18.7.04.16.07.31.1.47.05.27.09.54.12.8.02.14.04.27.05.41.04.41.06.83.06,1.25,0,7.15-5.86,13.01-13.01,13.01-6.07,0-11.17-4.15-12.64-9.72-.1-.39-.62-.45-.81-.09-.67,1.33-1.78,3.53-2.32,4.59-.19.38-.19.84.02,1.21,3.14,5.43,9.02,9.09,15.74,9.09,9.94,0,18.09-8.08,18.09-18.09,0-.59-.03-1.18-.09-1.76Z"/>
    <path class="cls-1" d="m126.11.58h-9.78c-6.37.16-11.3,6.26-9.6,12.87,1.18,4.59,5.55,7.65,10.29,7.65h7.26c1.56,0,3.12.62,4.08,1.84.71.89,1.12,2.02,1.12,3.24,0,2.36-1.64,4.5-4,5.08,0,0,0,0,0,0l-19.47.04c-.29,0-.53.24-.53.53v1.04c0,1.86,1.52,3.38,3.38,3.38h15.42c5.81,0,10.56-4.68,10.28-10.57-.26-5.52-5.09-9.73-10.62-9.73h-7.04c-2.64,0-5.04-1.86-5.38-4.48-.39-3,1.88-5.66,4.82-5.81h19.66c-2.24-3.04-5.83-5.04-9.89-5.08Z"/>
    <path class="cls-1" d="m159.35,2.5l-6.81,12.93c-.52.98-1.92.98-2.43,0l-6.84-12.97c-.61-1.16-1.81-1.88-3.12-1.88h-4.99c-.2,0-.28.25-.12.37,1.76,1.33,3.22,3.03,4.27,4.98l9.03,15.63c.23.4.35.85.35,1.31v11.47c0,1.05.85,1.91,1.9,1.91h1.43c1.05,0,1.91-.86,1.91-1.91v-11.47c.01-.46.13-.91.36-1.31l9.03-15.63c1.05-1.96,2.52-3.67,4.29-5,.15-.12.08-.36-.12-.36h-4.97c-1.34,0-2.56.74-3.19,1.92Z"/>
    <path class="cls-1" d="m183.67,15.87h-7.72c-2.86,0-5.15-2.29-5.15-5.15s2.15-5.01,4.86-5.15h16.05c1.02,0,1.85-.84,1.85-1.85v-1.32c0-1.04-.84-1.89-1.88-1.9h-16.02c-5.51.14-9.94,4.72-9.94,10.22s4.65,10.3,10.23,10.3h8.87c2.36.57,4,2.65,4,5.08s-1.64,4.51-4,5.08h-16.09c-1,.03-1.8.85-1.8,1.86v1.32c0,1.01.8,1.84,1.8,1.9h14.87c5.65,0,10.29-4.49,10.29-10.14s-4.57-10.22-10.22-10.22Z"/>
    <path class="cls-1" d="m103.38,35.43c-.37-.78-.57-1.64-.57-2.56V14.24c-.41-7.43-6.47-13.34-13.99-13.56-7.52.22-13.59,6.13-14.01,13.56l.05,12.95c0,2.24-1.82,4.06-4.06,4.06h-1.15c-1.26,1.61-2.76,3.02-4.44,4.2-.36.25-.18.81.26.81h3.82c1.87,0,3.63-.5,5.16-1.36,3.18-1.8,5.35-5.19,5.39-9.08,0-.02.03-9.54.03-11.36.28-4.78,4.18-8.47,8.9-8.7h.06c4.73.23,8.62,3.92,8.9,8.7,0,3.94.05,16.31.05,16.54,0,3.63,3.22,4.86,5.04,5.17.42.07.72-.36.54-.74Z"/>
  </g>
</svg>