<svg xmlns="http://www.w3.org/2000/svg" viewBox="0 0 61.07 68.13"><defs><style>.cls-1{fill:#fff;opacity:0.75;}</style></defs><title>icon</title><g id="Camada_2" data-name="Camada 2"><g id="Camada_1-2" data-name="Camada 1"><path class="cls-1" d="M61.07,25h0A6,6,0,0,0,61,24a7.06,7.06,0,0,0-6.53-5.84,11.54,11.54,0,0,1-3.25-.61,12.62,12.62,0,0,1-4.49-2.89,1.42,1.42,0,0,1-.13-.12l-.11-.12A12.79,12.79,0,0,1,43,7c0-.24-.05-.47-.07-.71a6.64,6.64,0,0,0-.27-1.72,6.81,6.81,0,0,0-2.17-3.16,7.34,7.34,0,0,0-8.57-.1,6.87,6.87,0,0,0-.68,10.22,6.8,6.8,0,0,0,4.11,2l.55,0a12.83,12.83,0,0,1,7.63,3.66s.09.08.13.13.08.09.13.13l.06.07a11,11,0,0,1,0,14.86l-.06.07c-.05,0-.08.09-.13.13s-.09.08-.13.13a12.83,12.83,0,0,1-7.63,3.66c-.18,0-.36,0-.55,0A6.87,6.87,0,0,0,31.94,48.7a7.33,7.33,0,0,0,8.57-.09,6.81,6.81,0,0,0,2.17-3.16A6.64,6.64,0,0,0,43,43.73c0-.24,0-.47.07-.71a12.79,12.79,0,0,1,3.46-7.4l.11-.13.13-.11a12.64,12.64,0,0,1,4.49-2.9,11.52,11.52,0,0,1,3.25-.6A7.06,7.06,0,0,0,61,26a6,6,0,0,0,.08-1Z"/><path class="cls-1" d="M0,43.11H0A6.89,6.89,0,0,0,6.62,50a11.47,11.47,0,0,1,3.24.61,12.79,12.79,0,0,1,4.5,2.89l.12.12a1.42,1.42,0,0,1,.12.13,12.82,12.82,0,0,1,3.46,7.39l.06.71a7.09,7.09,0,0,0,.27,1.72,6.83,6.83,0,0,0,2.18,3.16,7.31,7.31,0,0,0,8.56.1A6.86,6.86,0,0,0,25.7,54.57l-.55,0a12.83,12.83,0,0,1-7.63-3.66l-.13-.12-.12-.14-.06-.07a11,11,0,0,1,0-14.86l.06-.06.12-.14.13-.12a12.85,12.85,0,0,1,7.63-3.67l.55,0a6.87,6.87,0,0,0,3.44-12.23,7.34,7.34,0,0,0-8.57.09,7,7,0,0,0-2.18,3.16,7.17,7.17,0,0,0-.27,1.72l-.06.71a12.82,12.82,0,0,1-3.46,7.4,1.42,1.42,0,0,1-.12.13l-.12.11a12.68,12.68,0,0,1-4.5,2.9,11.46,11.46,0,0,1-3.24.6A7.07,7.07,0,0,0,.08,42.1a7,7,0,0,0-.08,1Z"/></g></g></svg>