<?xml version="1.0" encoding="UTF-8"?>
<svg id="Camada_2" data-name="Camada 2" xmlns="http://www.w3.org/2000/svg" viewBox="0 0 61.07 68.13">
  <defs>
    <style>
      .cls-1 {
        fill: #6b8fc9;
        stroke-width: 0px;
      }
    </style>
  </defs>
  <g id="Camada_1-2" data-name="Camada 1">
    <path class="cls-1" d="m61.07,25.02h0c0-.33-.03-.67-.08-1.02-.5-3.24-3.3-5.6-6.54-5.84-1.1-.08-2.21-.21-3.25-.61-1.64-.62-3.17-1.58-4.49-2.89-.04-.04-.09-.08-.13-.12-.04-.04-.07-.09-.11-.13-2-2.1-3.15-4.71-3.46-7.4-.03-.24-.05-.47-.06-.71-.04-.58-.09-1.17-.27-1.72-.39-1.19-1.11-2.29-2.17-3.16-2.27-1.87-6.25-1.92-8.56-.1-3.27,2.57-3.51,7.32-.69,10.22,1.14,1.17,2.61,1.84,4.11,2.02.18.01.37.02.55.04,2.79.31,5.49,1.54,7.63,3.66.04.04.09.08.13.12.04.04.08.09.12.14.02.02.04.04.06.07,1.94,2.07,2.9,4.75,2.89,7.43.01,2.68-.94,5.36-2.89,7.43-.02.02-.04.04-.06.07-.04.04-.08.09-.12.14-.04.04-.09.08-.13.12-2.14,2.13-4.84,3.35-7.63,3.66-.18.02-.37.03-.55.04-1.51.17-2.97.85-4.11,2.02-2.83,2.89-2.59,7.64.68,10.21,2.31,1.82,6.3,1.78,8.57-.09,1.06-.87,1.78-1.97,2.17-3.16.18-.55.24-1.14.27-1.72.02-.24.04-.47.06-.71.31-2.69,1.45-5.29,3.46-7.4.04-.04.07-.09.11-.13.04-.04.09-.08.13-.12,1.32-1.31,2.86-2.28,4.49-2.89,1.04-.39,2.14-.52,3.25-.61,3.24-.24,6.04-2.6,6.54-5.84.05-.34.08-.68.08-1.02h0Z"/>
    <path class="cls-1" d="m0,43.11h0c0,.33.03.67.08,1.02.5,3.24,3.3,5.6,6.54,5.84,1.1.08,2.21.21,3.25.61,1.64.62,3.17,1.58,4.49,2.89.04.04.09.08.13.12.04.04.07.09.11.13,2,2.1,3.15,4.71,3.46,7.4.03.24.05.47.06.71.04.58.09,1.17.27,1.72.39,1.19,1.11,2.29,2.17,3.16,2.27,1.87,6.25,1.92,8.56.1,3.27-2.57,3.51-7.32.69-10.22-1.15-1.17-2.61-1.84-4.11-2.02-.18-.01-.37-.02-.55-.04-2.79-.31-5.49-1.54-7.63-3.66-.04-.04-.09-.08-.13-.12-.04-.04-.08-.09-.12-.14-.02-.02-.04-.04-.06-.07-1.94-2.07-2.9-4.75-2.89-7.43-.01-2.68.94-5.36,2.89-7.43.02-.02.04-.04.06-.07.04-.04.08-.09.12-.14.04-.04.09-.08.13-.12,2.14-2.13,4.84-3.35,7.63-3.66.18-.02.37-.03.55-.04,1.51-.17,2.97-.85,4.11-2.02,2.83-2.89,2.59-7.64-.68-10.21-2.31-1.82-6.3-1.78-8.57.09-1.06.87-1.78,1.97-2.17,3.16-.18.55-.24,1.14-.27,1.72-.02.24-.04.47-.06.71-.31,2.69-1.45,5.29-3.46,7.4-.04.04-.07.09-.11.13-.04.04-.09.08-.13.12-1.32,1.31-2.86,2.28-4.49,2.89-1.04.39-2.14.52-3.25.61-3.24.24-6.04,2.6-6.54,5.84-.05.34-.08.68-.08,1.02h0Z"/>
  </g>
</svg>