<svg xmlns="http://www.w3.org/2000/svg" xmlns:xlink="http://www.w3.org/1999/xlink" viewBox="0 0 51.1 57.01"><defs><style>.cls-1{fill:url(#Gradiente_sem_nome_46);}.cls-2{fill:url(#Gradiente_sem_nome_46-2);}</style><linearGradient id="Gradiente_sem_nome_46" x1="24.19" y1="20.93" x2="51.1" y2="20.93" gradientUnits="userSpaceOnUse"><stop offset="0" stop-color="#6b8fc9"/><stop offset="1" stop-color="#243470"/></linearGradient><linearGradient id="Gradiente_sem_nome_46-2" x1="-2490.58" y1="-1984.02" x2="-2517.5" y2="-1984.02" gradientTransform="translate(-2490.91 -1947.95) rotate(180)" xlink:href="#Gradiente_sem_nome_46"/></defs><g id="Camada_2" data-name="Camada 2"><g id="Camada_1-2" data-name="Camada 1"><path class="cls-1" d="M51.1,20.93h0a5,5,0,0,0-.07-.85,5.92,5.92,0,0,0-5.47-4.89,9.61,9.61,0,0,1-2.71-.5,10.63,10.63,0,0,1-3.76-2.42l-.11-.1-.09-.11A10.7,10.7,0,0,1,36,5.87c0-.19,0-.39-.05-.59a5.78,5.78,0,0,0-.23-1.44A5.8,5.8,0,0,0,33.9,1.2a6.13,6.13,0,0,0-7.17-.08A5.74,5.74,0,0,0,29.6,11.35l.46,0a10.76,10.76,0,0,1,6.38,3.06,1.14,1.14,0,0,1,.11.11,1,1,0,0,1,.1.11l.06.06a9.22,9.22,0,0,1,0,12.43l-.06.06-.1.11a.52.52,0,0,1-.11.1,10.72,10.72,0,0,1-6.38,3.07l-.46,0a5.75,5.75,0,0,0-2.88,10.23,6.14,6.14,0,0,0,7.17-.08,5.3,5.3,0,0,0,2-4.08c0-.2,0-.4.05-.59a10.7,10.7,0,0,1,2.9-6.19L39,29.7l.11-.1a10.63,10.63,0,0,1,3.76-2.42,9.62,9.62,0,0,1,2.71-.51A5.9,5.9,0,0,0,51,21.78a4.88,4.88,0,0,0,.07-.85Z"/><path class="cls-2" d="M0,36.07H0a4.88,4.88,0,0,0,.07.85,5.9,5.9,0,0,0,5.47,4.89,9.56,9.56,0,0,1,2.71.51A10.63,10.63,0,0,1,12,44.74a.52.52,0,0,1,.11.1l.1.11a10.75,10.75,0,0,1,2.89,6.18c0,.2,0,.4.05.6a5.93,5.93,0,0,0,.23,1.44,5.74,5.74,0,0,0,1.82,2.64,6.13,6.13,0,0,0,7.16.08A5.73,5.73,0,0,0,21.5,45.66l-.46,0a10.72,10.72,0,0,1-6.38-3.07l-.11-.1a1.09,1.09,0,0,0-.1-.11l0-.06a9.19,9.19,0,0,1,0-12.43l0-.06a1.09,1.09,0,0,1,.1-.11,1.14,1.14,0,0,0,.11-.11A10.7,10.7,0,0,1,21,26.52l.46,0a5.74,5.74,0,0,0,2.88-10.23,6.11,6.11,0,0,0-7.17.08A5.69,5.69,0,0,0,15.39,19a5.78,5.78,0,0,0-.23,1.44c0,.2,0,.39-.05.59a10.75,10.75,0,0,1-2.89,6.19l-.1.11-.11.1a10.63,10.63,0,0,1-3.76,2.42,9.55,9.55,0,0,1-2.71.5A5.91,5.91,0,0,0,.07,35.22a5,5,0,0,0-.07.85Z"/></g></g></svg>