<svg xmlns="http://www.w3.org/2000/svg" viewBox="0 0 364.88 112.99"><defs><style>.cls-1{fill:#6b8fc9;}.cls-2{fill:#fff;}</style></defs><title>logo</title><g id="Camada_2" data-name="Camada 2"><g id="Camada_1-2" data-name="Camada 1"><ellipse class="cls-1" cx="152.49" cy="85.68" rx="10.34" ry="10.2" transform="translate(-15.92 132.92) rotate(-45)"/><path class="cls-2" d="M179.5,83c0-.29-.08-.58-.12-.88-.08-.57-.15-1.14-.26-1.71-.07-.34-.16-.68-.24-1-.12-.5-.24-1-.38-1.47s-.23-.73-.35-1.09-.31-.87-.48-1.3-.31-.75-.48-1.12-.36-.77-.55-1.15-.39-.76-.61-1.14-.39-.66-.6-1-.49-.78-.75-1.16-.38-.51-.58-.77c-.31-.42-.62-.83-1-1.24l-.27-.29A27.68,27.68,0,0,0,166,61.94l-.15-.09c-.62-.36-1.26-.69-1.91-1l-.24-.12c-.65-.3-1.31-.57-2-.83l-.25-.09c-.68-.25-1.38-.47-2.09-.67l-.18,0a26.77,26.77,0,0,0-7-1h-.05a30.7,30.7,0,0,0-4.62.36h0l-.7.12h0a25.67,25.67,0,0,0-3.77,1h0l-.21.07h0a23.91,23.91,0,0,0-3.8,1.75l0,0h0c-.57.32-1.12.67-1.66,1h0l-.06,0a28.75,28.75,0,0,0-2.47,1.93,27,27,0,0,0-5.7,6.39,96.06,96.06,0,0,0-6.78,11.42l0,.08-2.13,4.09-.22.41-.69,1.33c-.52,1-1,1.94-1.57,2.9-.09.15-.17.31-.25.46-.6,1.07-1.21,2.13-1.83,3.16h0l-.1.18c-.67,1.1-1.36,2.18-2.07,3.23l-.15.19a19.24,19.24,0,0,1-4.35,3.71A21.5,21.5,0,0,1,98.61,105,19.34,19.34,0,0,1,80.13,91.39a19.79,19.79,0,0,1-.85-6.66c.48-10.51,9.6-18.57,20.12-18.57l14.07,0a2.75,2.75,0,0,0,2.74-2.74v-2a2.84,2.84,0,0,0-2.84-2.83H98.63a27,27,0,0,0-27,27h0a27,27,0,0,0,27,27A27.41,27.41,0,0,0,110.35,110a23.54,23.54,0,0,0,8.51-6.32c.17-.2.36-.37.53-.56l0,0h0c.61-.82,1.2-1.69,1.77-2.56v0c.28-.44.54-.89.81-1.34l0,0s0-.07.05-.1c.62-1,1.21-2.06,1.79-3.13a.43.43,0,0,1,0-.07l.42-.78h0c.4-.75.79-1.52,1.17-2.28,0-.08.09-.17.13-.25a.31.31,0,0,0,.05-.1c.92-1.82,1.83-3.66,2.73-5.49l1-1.92c.06-.11.12-.22.17-.33a57.54,57.54,0,0,1,7.12-11.23h0c.59-.67,1.19-1.31,1.83-1.91h0a22.9,22.9,0,0,1,2-1.7c.27-.2.53-.4.81-.59s.73-.48,1.11-.71c.53-.32,1.08-.6,1.64-.87.35-.16.7-.3,1.06-.44.58-.23,1.18-.44,1.81-.63l.92-.24a21.18,21.18,0,0,1,2.65-.46h0c.57,0,1.15-.09,1.74-.09h.05a19.38,19.38,0,0,1,4.72.61,19.7,19.7,0,0,1,7.18,3.46l.12.1c.36.28.71.58,1.06.89l.26.24c.32.29.62.59.92.9l.3.34q.42.45.81.93l.28.38a20.71,20.71,0,0,1,1.23,1.82l.34.56.38.76c.14.29.28.57.41.86s.21.5.31.75.24.64.35,1,.15.5.23.74.19.71.27,1.06.11.48.15.72c.08.4.14.81.19,1.21,0,.21.06.41.08.62q.09.93.09,1.89a19.73,19.73,0,0,1-38.8,5,.66.66,0,0,0-1.22-.14l-3.51,6.94a1.94,1.94,0,0,0,0,1.84,27.42,27.42,0,0,0,51.18-13.62C179.63,84.73,179.58,83.84,179.5,83Z"/><path class="cls-2" d="M262.35,59H247.56A15.53,15.53,0,0,0,233,78.5c1.79,7,8.39,11.57,15.57,11.57h11a7.56,7.56,0,0,1,7.87,7.68,8,8,0,0,1-6,7.68h0l-29.46.07a.8.8,0,0,0-.8.81v1.57a5.11,5.11,0,0,0,5.11,5.11h23.32a15.33,15.33,0,0,0,15.55-16c-.4-8.36-7.7-14.72-16.06-14.72H248.41a8.09,8.09,0,0,1-8.14-6.78,7.83,7.83,0,0,1,7.29-8.8H277.3A18.81,18.81,0,0,0,262.35,59Z"/><path class="cls-2" d="M312.63,61.94,302.32,81.5a2.08,2.08,0,0,1-3.67,0L288.3,61.88A5.32,5.32,0,0,0,283.59,59h-7.54a.31.31,0,0,0-.18.57,23.16,23.16,0,0,1,6.45,7.53L296,90.77a4,4,0,0,1,.53,2V110.1a2.9,2.9,0,0,0,2.89,2.89h2.16a2.9,2.9,0,0,0,2.89-2.89l0-17.35a3.94,3.94,0,0,1,.53-2l13.65-23.64a23,23,0,0,1,6.49-7.55A.3.3,0,0,0,325,59h-7.51A5.45,5.45,0,0,0,312.63,61.94Z"/><path class="cls-2" d="M349.41,82.17H337.73a7.8,7.8,0,0,1-.43-15.58h24.28a2.8,2.8,0,0,0,2.79-2.8v-2a2.89,2.89,0,0,0-2.84-2.88H337.3a15.52,15.52,0,0,0-15,15.47A15.69,15.69,0,0,0,337.73,90h13.41a7.9,7.9,0,0,1,0,15.36H326.81a2.81,2.81,0,0,0-2.73,2.8v2a2.9,2.9,0,0,0,2.73,2.87h22.5a15.41,15.41,0,1,0,.1-30.82Z"/><path class="cls-2" d="M228,111.75a9,9,0,0,1-.87-3.87l0-28.19a21.2,21.2,0,0,0-42.37,0l.07,19.58a6.14,6.14,0,0,1-6.13,6.14H177a31.35,31.35,0,0,1-6.71,6.35.68.68,0,0,0,.39,1.23h5.78a15.83,15.83,0,0,0,7.81-2.06,16,16,0,0,0,8.16-13.73s.05-14.44.05-17.18a14.09,14.09,0,0,1,13.46-13.17H206A14.09,14.09,0,0,1,219.44,80c0,6,.08,24.67.08,25,0,5.5,4.87,7.35,7.63,7.82A.77.77,0,0,0,228,111.75Z"/><path class="cls-1" d="M92.38,37.85h0a10.08,10.08,0,0,0-.12-1.54,10.68,10.68,0,0,0-9.89-8.84,17.41,17.41,0,0,1-4.91-.92,19.14,19.14,0,0,1-6.79-4.37l-.2-.18c-.06-.06-.11-.13-.17-.2a19.37,19.37,0,0,1-5.23-11.18c0-.36-.07-.72-.1-1.08a9.94,9.94,0,0,0-.41-2.6,10.32,10.32,0,0,0-3.28-4.77,11.08,11.08,0,0,0-13-.15,10.38,10.38,0,0,0,5.19,18.5c.28,0,.55,0,.83.05a19.47,19.47,0,0,1,11.54,5.54c.06.07.13.12.2.19l.18.21.1.1a16.63,16.63,0,0,1,0,22.47l-.1.1-.18.21c-.07.07-.14.12-.2.19a19.47,19.47,0,0,1-11.54,5.54c-.28,0-.55,0-.83.05a10.38,10.38,0,0,0-5.2,18.5,11.1,11.1,0,0,0,13-.14,10.34,10.34,0,0,0,3.29-4.78,9.94,9.94,0,0,0,.41-2.6c0-.36.06-.72.1-1.08A19.37,19.37,0,0,1,70.3,53.89c.06-.07.11-.14.17-.2l.2-.18a19.14,19.14,0,0,1,6.79-4.37,17.77,17.77,0,0,1,4.91-.92,10.68,10.68,0,0,0,9.89-8.84,10.05,10.05,0,0,0,.12-1.53Z"/><path class="cls-1" d="M0,65.21H0a11.54,11.54,0,0,0,.12,1.54A10.69,10.69,0,0,0,10,75.59a17.41,17.41,0,0,1,4.91.92,19.27,19.27,0,0,1,6.8,4.37l.19.18.17.19a19.33,19.33,0,0,1,5.23,11.19c0,.36.08.72.1,1.07a10.93,10.93,0,0,0,.41,2.61,10.34,10.34,0,0,0,3.29,4.77,11.07,11.07,0,0,0,13,.15,10.38,10.38,0,0,0-5.18-18.5c-.28,0-.56,0-.83-.06A19.37,19.37,0,0,1,26.51,77c-.07-.07-.14-.12-.2-.19l-.19-.21-.09-.1A16.63,16.63,0,0,1,26,54l.09-.1c.07-.07.12-.15.19-.21s.13-.12.2-.19a19.38,19.38,0,0,1,11.54-5.54c.27,0,.55,0,.83,0a10.38,10.38,0,0,0,5.19-18.5,11.1,11.1,0,0,0-13,.14,10.49,10.49,0,0,0-3.29,4.78,10.85,10.85,0,0,0-.41,2.6c0,.36-.06.72-.1,1.08a19.3,19.3,0,0,1-5.23,11.18c-.06.07-.11.14-.17.2s-.13.11-.19.18a19.27,19.27,0,0,1-6.8,4.37,17.77,17.77,0,0,1-4.91.92A10.68,10.68,0,0,0,.12,63.68,11.52,11.52,0,0,0,0,65.21Z"/></g></g></svg>